<svg xmlns="http://www.w3.org/2000/svg" width="1280" height="184" viewBox="0 0 236.234 34">
  <g id="logo_academy" transform="translate(-211.853 -107.529)">
    <path id="Subtraction_662" data-name="Subtraction 662" d="M10.606,21.207A10.558,10.558,0,0,1,4.676,19.4,10.635,10.635,0,0,1,.834,14.731,10.587,10.587,0,0,1,1.811,4.675,10.638,10.638,0,0,1,6.478.833a10.594,10.594,0,0,1,10.058.978A10.662,10.662,0,0,1,19.4,4.675c.035.051.07.1.1.156H16.14a8,8,0,1,0,.3,11.411H19.59c-.062.1-.126.2-.189.289a10.636,10.636,0,0,1-4.666,3.842A10.544,10.544,0,0,1,10.606,21.207Z" transform="translate(211.853 114.127)" fill="#ff4013"/>
    <path id="Subtraction_666" data-name="Subtraction 666" d="M8.256,16.512A8.217,8.217,0,0,1,3.64,15.1,8.28,8.28,0,0,1,.649,11.469,8.245,8.245,0,0,1,1.41,3.64,8.28,8.28,0,0,1,5.042.649a8.245,8.245,0,0,1,7.829.761,8.28,8.28,0,0,1,2.991,3.632,8.245,8.245,0,0,1-.761,7.829,8.28,8.28,0,0,1-3.632,2.991A8.2,8.2,0,0,1,8.256,16.512ZM8.274,2.518a5.757,5.757,0,1,0,5.757,5.757A5.763,5.763,0,0,0,8.274,2.518Z" transform="translate(306.187 135.334) rotate(180)" fill="#ff4013"/>
    <path id="Path_6028" data-name="Path 6028" d="M25.736-113.624c0-4.989-3.336-8.356-8.019-8.356a7.944,7.944,0,0,0-8.141,8.264c0,4.836,3.489,8.294,8.723,8.294a8.142,8.142,0,0,0,6.4-2.632l-1.622-1.9a6.057,6.057,0,0,1-4.683,1.959c-3.214,0-5.509-1.9-5.877-4.744H25.675C25.706-113.012,25.736-113.38,25.736-113.624ZM17.717-119.5a5.059,5.059,0,0,1,5.2,4.652H12.514A5.056,5.056,0,0,1,17.717-119.5Z" transform="translate(230.679 240.805)" fill="#ff4013" stroke="rgba(0,0,0,0)" stroke-width="1"/>
    <path id="Path_6027" data-name="Path 6027" d="M23.564-119.1v-2.724H20.748v16.222h2.938v-8.08c0-3.55,1.959-5.479,5.111-5.479a5.189,5.189,0,0,1,.673.031v-2.846C26.625-121.98,24.6-121,23.564-119.1Z" transform="translate(211.207 240.805)" fill="#ff4013"/>
    <path id="Path_6030" data-name="Path 6030" d="M24.4-138.373a2.648,2.648,0,0,1-1.893.765c-1.622,0-2.138-.979-2.138-2.723v-8.782H25.02v-2.417H20.368v-4.757H17.429v4.757H16.42v2.417h1.009v8.9c0,3.274,1.464,5.079,4.739,5.079a4.471,4.471,0,0,0,3.148-1.132Z" transform="translate(259.243 270.511)" fill="#ff4013"/>
    <path id="Path_6031" data-name="Path 6031" d="M20.748-104.618h2.938V-120.84H20.748Z" transform="translate(264.891 239.818)" fill="#ff4013"/>
    <g id="Group_5722" data-name="Group 5722" transform="translate(257.329 118.822)">
      <path id="Subtraction_664" data-name="Subtraction 664" d="M8.256,16.512A8.217,8.217,0,0,1,3.64,15.1,8.28,8.28,0,0,1,.649,11.469,8.245,8.245,0,0,1,1.41,3.64,8.28,8.28,0,0,1,5.042.649a8.245,8.245,0,0,1,7.829.761,8.28,8.28,0,0,1,2.991,3.632,8.245,8.245,0,0,1-.761,7.829,8.28,8.28,0,0,1-3.632,2.991A8.2,8.2,0,0,1,8.256,16.512ZM8.274,2.518a5.757,5.757,0,1,0,5.757,5.757A5.763,5.763,0,0,0,8.274,2.518Z" transform="translate(16.512 16.512) rotate(180)" fill="#ff4013"/>
      <path id="Path_6029" data-name="Path 6029" d="M20.748-104.618h2.536V-120.84H20.748Z" transform="translate(-6.663 120.996)" fill="#ff4013"/>
    </g>
    <g id="Group_5728" data-name="Group 5728" transform="translate(310.378 112.898)">
      <path id="Path_6147" data-name="Path 6147" d="M19.026-45.711h3.191L12.552-66.987H9.543L-.092-45.711H3.039l2.34-5.319H16.686ZM6.443-53.462l4.59-10.425,4.59,10.425Zm24.285,7.933a7.207,7.207,0,0,0,6.565-3.465l-2.219-1.4a5.022,5.022,0,0,1-4.377,2.31,5.338,5.338,0,0,1-5.532-5.684A5.346,5.346,0,0,1,30.7-59.419a5.022,5.022,0,0,1,4.377,2.31l2.219-1.429a7.184,7.184,0,0,0-6.565-3.435c-4.954,0-8.511,3.4-8.511,8.207S25.774-45.529,30.728-45.529ZM69.421-68.264v8.875A6.855,6.855,0,0,0,63.8-61.972a7.819,7.819,0,0,0-8.146,8.207A7.843,7.843,0,0,0,63.8-45.529a6.806,6.806,0,0,0,5.745-2.736v2.553h2.8V-68.264Zm-5.38,20.182A5.334,5.334,0,0,1,58.6-53.766a5.309,5.309,0,0,1,5.441-5.653,5.3,5.3,0,0,1,5.41,5.653A5.327,5.327,0,0,1,64.041-48.082Zm26.3-5.593c0-4.954-3.313-8.3-7.963-8.3A7.889,7.889,0,0,0,74.3-53.766c0,4.8,3.465,8.237,8.663,8.237a8.086,8.086,0,0,0,6.353-2.614L87.7-50.027a6.015,6.015,0,0,1-4.65,1.945c-3.191,0-5.471-1.884-5.836-4.711h13.07C90.314-53.067,90.344-53.431,90.344-53.675ZM82.381-59.51a5.024,5.024,0,0,1,5.167,4.62H77.214A5.021,5.021,0,0,1,82.381-59.51Zm30.4-2.462a7.26,7.26,0,0,0-6.2,2.979,5.962,5.962,0,0,0-5.593-2.979,6.529,6.529,0,0,0-5.562,2.553v-2.4h-2.8v16.109H95.55v-8.3c0-3.5,1.915-5.349,4.833-5.349,2.644,0,4.164,1.55,4.164,4.711v8.936h2.918v-8.3c0-3.5,1.915-5.349,4.833-5.349,2.644,0,4.164,1.55,4.164,4.711v8.936h2.918v-9.27C119.379-59.723,116.7-61.972,112.784-61.972Zm21.975.152L129.2-48.933,123.574-61.82h-3.039l7.112,16.079-.517,1.125c-.79,1.854-1.672,2.492-3.07,2.492a4.122,4.122,0,0,1-2.888-1.185l-1.246,2.188a6.048,6.048,0,0,0,4.134,1.489c2.462,0,4.316-1.064,5.745-4.468l7.811-17.72Z" transform="translate(0.092 68.264)" fill="#0b2e4e"/>
      <g id="Group_5723" data-name="Group 5723" transform="translate(38.105 5.923)">
        <path id="Subtraction_664-2" data-name="Subtraction 664" d="M8.256,16.512A8.217,8.217,0,0,1,3.64,15.1,8.28,8.28,0,0,1,.649,11.469,8.245,8.245,0,0,1,1.41,3.64,8.28,8.28,0,0,1,5.042.649a8.245,8.245,0,0,1,7.829.761,8.28,8.28,0,0,1,2.991,3.632,8.245,8.245,0,0,1-.761,7.829,8.28,8.28,0,0,1-3.632,2.991A8.2,8.2,0,0,1,8.256,16.512ZM8.274,2.518a5.757,5.757,0,1,0,5.757,5.757A5.763,5.763,0,0,0,8.274,2.518Z" transform="translate(16.512 16.512) rotate(180)" fill="#0b2e4e"/>
        <path id="Path_6029-2" data-name="Path 6029" d="M20.748-104.618h2.536V-120.84H20.748Z" transform="translate(-6.663 120.996)" fill="#0b2e4e"/>
      </g>
    </g>
    <path id="Path_5977" data-name="Path 5977" d="M428.791,269.592l-11.37,2.639,3.385-2.639-13.872-6.575Z" transform="translate(-135.05 -155.488)" fill="#0b2e4e"/>
    <path id="Path_5977-2" data-name="Path 5977" d="M428.791,269.592h-7.985l-13.872-6.575Z" transform="translate(-135.05 -155.488)" fill="#004381"/>
  </g>
</svg>
