<svg xmlns="http://www.w3.org/2000/svg" viewBox="0 0 213 213" width="1080" height="1080">
    <defs>
        <style>
            .cls-1{fill:#ff4013}.cls-2{fill:#e10000}
        </style>
    </defs>
    <g transform="translate(-1687 -6473.002)">
        <path d="M-10757.5 21608a105.786 105.786 0 0 1-41.453-8.371 106.406 106.406 0 0 1-18.092-9.818 107.253 107.253 0 0 1-15.762-13.006 107.113 107.113 0 0 1-13-15.762 106.606 106.606 0 0 1-9.819-18.09 105.827 105.827 0 0 1-8.369-41.453 105.836 105.836 0 0 1 8.369-41.455 106.612 106.612 0 0 1 9.819-18.092 107.317 107.317 0 0 1 13-15.762 107.445 107.445 0 0 1 15.762-13 106.5 106.5 0 0 1 18.092-9.818 105.823 105.823 0 0 1 41.453-8.369 105.831 105.831 0 0 1 41.454 8.369 106.461 106.461 0 0 1 18.091 9.818 107.277 107.277 0 0 1 15.762 13 107.354 107.354 0 0 1 13 15.762 106.475 106.475 0 0 1 9.819 18.092 105.815 105.815 0 0 1 8.369 41.455 105.805 105.805 0 0 1-8.369 41.453 106.469 106.469 0 0 1-9.819 18.09 107.15 107.15 0 0 1-13 15.762 107.21 107.21 0 0 1-15.762 13.006 106.371 106.371 0 0 1-18.091 9.818 105.791 105.791 0 0 1-41.454 8.371zm.5-182a75.083 75.083 0 0 0-75 75 75.086 75.086 0 0 0 75 75 75.086 75.086 0 0 0 75-75 75.084 75.084 0 0 0-75-75z" class="cls-1" transform="translate(12551 -14922)"/>
        <path d="M-10793.792 21593.723q-3.193-1.849-6.25-3.914a107.235 107.235 0 0 1-15.765-13 107.069 107.069 0 0 1-13-15.76 106.7 106.7 0 0 1-9.821-18.09 105.856 105.856 0 0 1-8.367-41.453 105.871 105.871 0 0 1 8.367-41.459 106.96 106.96 0 0 1 9.821-18.09 107.3 107.3 0 0 1 13-15.764 107.085 107.085 0 0 1 15.765-13q4.239-2.865 8.751-5.32a96.346 96.346 0 0 1 23.423-2.873 96.023 96.023 0 0 1 78.673 40.875 74.712 74.712 0 0 0-50.8-19.877 75.087 75.087 0 0 0-75 75 75.087 75.087 0 0 0 75 75 74.724 74.724 0 0 0 51.325-20.363 96.028 96.028 0 0 1-79.193 41.621 96.191 96.191 0 0 1-25.929-3.533z" class="cls-2" transform="translate(12534 -14921.998)"/>
    </g>
</svg>
